<svg width="current" height="current" viewBox="0 0 100 100" fill="none" xmlns="http://www.w3.org/2000/svg">
<rect width="100" height="100" rx="50" fill="#FAF3E7"/>
<path fill-rule="evenodd" clip-rule="evenodd" d="M54.1758 23C54.6758 23 55.1277 23.3218 55.3247 23.8182L57.6787 29.75H63.75C64.4404 29.75 65 30.3544 65 31.1V48.65C65 49.3956 64.4404 50 63.75 50H36.25C35.5596 50 35 49.3956 35 48.65V31.1C35 30.3544 35.5596 29.75 36.25 29.75H42.3212L44.6753 23.8182C44.8723 23.3218 45.3242 23 45.8242 23H54.1758ZM53.3512 25.7H46.6475L43.9697 32.45H37.5V47.3H62.5V32.45H56.0303L53.3512 25.7ZM50 32.45C53.4518 32.45 56.25 35.4721 56.25 39.2C56.25 42.9279 53.4518 45.95 50 45.95C46.5482 45.95 43.75 42.9279 43.75 39.2C43.75 35.4721 46.5482 32.45 50 32.45ZM50 35.15C47.9289 35.15 46.25 36.9632 46.25 39.2C46.25 41.4368 47.9289 43.25 50 43.25C52.0711 43.25 53.75 41.4368 53.75 39.2C53.75 36.9632 52.0711 35.15 50 35.15Z" fill="#262626"/>
<path d="M38.0614 61.704H39.9934L40.0414 58.452H38.0134L38.0614 61.704ZM33.9214 65.844V64.764H44.0014V65.844H33.9214ZM42.8734 62.784H35.1814V61.704H36.8854L36.8374 58.452H35.4454V57.372H42.6094V58.452H41.2174L41.1694 61.704H42.8734V62.784ZM44.9605 66.084V65.004H49.3405V63.348H46.6405V59.748H52.0405V58.344H46.6405V57.252H53.3485V60.84H47.9485V62.256H53.5765V63.348H50.6485V65.004H55.0405V66.084H44.9605ZM59.4075 61.044C59.4955 61.036 59.5835 61.032 59.6715 61.032C59.7675 61.032 59.8595 61.028 59.9475 61.02L59.9715 58.308H58.7715L58.7835 61.08C58.8875 61.072 58.9915 61.068 59.0955 61.068C59.1995 61.06 59.3035 61.052 59.4075 61.044ZM63.8955 56.736H65.1915V62.604H63.8955V56.736ZM58.9155 67.74V64.884H63.8955V64.176H58.9035V63.108H65.1915V65.916H60.1995V66.66H65.4555V67.74H58.9155ZM62.7915 61.848C62.3755 61.912 61.9235 61.968 61.4355 62.016C60.9555 62.056 60.4315 62.092 59.8635 62.124C59.3035 62.156 58.7315 62.184 58.1475 62.208C57.5715 62.224 56.9835 62.236 56.3835 62.244L56.2635 61.128C56.4475 61.136 56.6515 61.14 56.8755 61.14C57.0995 61.132 57.3395 61.124 57.5955 61.116L57.5715 58.308H56.5755V57.192H62.0955V58.308H61.1355L61.1115 60.936C61.3915 60.912 61.6595 60.884 61.9155 60.852C62.1795 60.82 62.4275 60.784 62.6595 60.744L62.7915 61.848ZM48.2249 70.736V74.132H50.0009V75.236H48.2249V81.236H46.9289V70.736H48.2249ZM45.2609 78.56C44.7089 78.192 44.2049 77.756 43.7489 77.252C43.3009 76.74 42.9689 76.216 42.7529 75.68C42.5289 76.256 42.1889 76.816 41.7329 77.36C41.2849 77.896 40.7689 78.348 40.1849 78.716L39.3449 77.768C39.7049 77.552 40.0489 77.292 40.3769 76.988C40.7049 76.676 40.9929 76.316 41.2409 75.908C41.4889 75.5 41.6849 75.064 41.8289 74.6C41.9809 74.128 42.0569 73.616 42.0569 73.064L42.0689 71.312H43.4009V73.028C43.4009 73.556 43.4689 74.048 43.6049 74.504C43.7489 74.96 43.9449 75.38 44.1929 75.764C44.4329 76.148 44.7129 76.492 45.0329 76.796C45.3609 77.1 45.7089 77.36 46.0769 77.576L45.2609 78.56ZM58.376 70.736H59.672V78.536H58.376V70.736ZM59.912 81.488H53.252V77.804H54.572V80.396H59.912V81.488ZM51.14 72.512V71.408H56.852V72.512H54.68V73.052C54.68 73.42 54.744 73.764 54.872 74.084C55.008 74.396 55.196 74.684 55.436 74.948C55.668 75.212 55.936 75.452 56.24 75.668C56.544 75.884 56.876 76.072 57.236 76.232L56.468 77.18C55.932 76.932 55.452 76.624 55.028 76.256C54.612 75.888 54.272 75.496 54.008 75.08C53.736 75.544 53.396 75.968 52.988 76.352C52.588 76.736 52.096 77.084 51.512 77.396L50.72 76.484C51.064 76.3 51.392 76.096 51.704 75.872C52.016 75.64 52.292 75.38 52.532 75.092C52.764 74.812 52.952 74.508 53.096 74.18C53.24 73.852 53.312 73.484 53.312 73.076V72.512H51.14Z" fill="black"/>
</svg>
