<svg width="58" height="53" viewBox="0 0 58 53" fill="none" xmlns="http://www.w3.org/2000/svg">
<path fill-rule="evenodd" clip-rule="evenodd" d="M12.6254 4.41844C14.4724 2.69258 17.4681 2.6918 19.3161 4.4167L28.0501 12.5692C29.8973 14.2934 29.8981 17.0892 28.0519 18.8144L24.9562 21.7072L35.0184 31.1007L38.1121 28.2097C39.959 26.4839 42.9548 26.4831 44.8027 28.208L52.5976 35.4838C54.4448 37.208 54.4457 40.0039 52.5994 41.7291L47.4431 46.5475C44.4197 49.3727 39.7654 50.0032 36.0067 48.0967C23.2409 41.6216 12.7543 31.8317 5.81609 19.9143C3.77404 16.4068 4.44578 12.062 7.46837 9.2375L12.6254 4.41844ZM24.7057 15.6927L15.9717 7.5402L10.8146 12.3593C9.27336 13.7995 8.93041 16.0157 9.97211 17.805C16.4743 28.9733 26.3017 38.1478 38.2648 44.2158C40.1816 45.188 42.555 44.8665 44.0968 43.4257L49.2532 38.6073L41.4584 31.3315L35.0201 37.3478L18.2676 21.7088L24.7057 15.6927Z" fill="#ECE5D3"/>
</svg>
