<svg width="24" height="26" viewBox="0 0 24 26" fill="none" xmlns="http://www.w3.org/2000/svg">
<path fill-rule="evenodd" clip-rule="evenodd" d="M15.3406 2.09448C15.7406 2.09448 16.1022 2.34412 16.2598 2.72915L18.143 7.33049H23C23.5523 7.33049 24 7.79934 24 8.37769V21.9913C24 22.5697 23.5523 23.0385 23 23.0385H1C0.447715 23.0385 0 22.5697 0 21.9913V8.37769C0 7.79934 0.447715 7.33049 1 7.33049H5.857L7.74024 2.72915C7.89783 2.34412 8.25936 2.09448 8.65938 2.09448H15.3406ZM14.681 4.18889H9.318L7.17576 9.4249H2V20.9441H22V9.4249H16.8242L14.681 4.18889ZM12 9.4249C14.7614 9.4249 17 11.7691 17 14.6609C17 17.5527 14.7614 19.8969 12 19.8969C9.23858 19.8969 7 17.5527 7 14.6609C7 11.7691 9.23858 9.4249 12 9.4249ZM12 11.5193C10.3431 11.5193 9 12.9258 9 14.6609C9 16.396 10.3431 17.8025 12 17.8025C13.6569 17.8025 15 16.396 15 14.6609C15 12.9258 13.6569 11.5193 12 11.5193Z" fill="#262626"/>
</svg>
