<svg width="47" height="44" viewBox="0 0 47 44" fill="none" xmlns="http://www.w3.org/2000/svg">
<path fill-rule="evenodd" clip-rule="evenodd" d="M5.87492 22C5.87492 12.8873 13.7659 5.49998 23.4999 5.49998C33.2339 5.49998 41.1249 12.8873 41.1249 22C41.1249 26.99 38.7588 31.4627 35.0195 34.4883C33.9398 29.4566 29.1926 25.6666 23.4999 25.6666C17.8072 25.6666 13.06 29.4566 11.9803 34.4883C8.24106 31.4627 5.87492 26.99 5.87492 22ZM15.6666 36.7849C18.0263 37.8827 20.6861 38.5 23.4999 38.5C26.3137 38.5 28.9735 37.8827 31.3333 36.7849V36.6666C31.3333 32.6166 27.8261 29.3333 23.4999 29.3333C19.1737 29.3333 15.6666 32.6166 15.6666 36.6666V36.7849ZM23.4999 1.83331C11.6028 1.83331 1.95825 10.8622 1.95825 22C1.95825 33.1377 11.6028 42.1667 23.4999 42.1667C35.3971 42.1667 45.0416 33.1377 45.0416 22C45.0416 10.8622 35.3971 1.83331 23.4999 1.83331ZM23.4999 20.1666C21.3368 20.1666 19.5833 18.525 19.5833 16.5C19.5833 14.4749 21.3368 12.8333 23.4999 12.8333C25.663 12.8333 27.4166 14.4749 27.4166 16.5C27.4166 18.525 25.663 20.1666 23.4999 20.1666ZM15.6666 16.5C15.6666 20.5501 19.1737 23.8333 23.4999 23.8333C27.8261 23.8333 31.3333 20.5501 31.3333 16.5C31.3333 12.4499 27.8261 9.16665 23.4999 9.16665C19.1737 9.16665 15.6666 12.4499 15.6666 16.5Z" fill="#554543"/>
</svg>
