<svg width="current" height="current" viewBox="0 0 67 74" fill="none" xmlns="http://www.w3.org/2000/svg">
<path fill-rule="evenodd" clip-rule="evenodd" d="M2.79167 0C4.33346 0 5.58333 1.24987 5.58333 2.79167V24.6667C5.58333 28.0724 8.08308 30.8333 11.1667 30.8333C14.2503 30.8333 16.75 28.0724 16.75 24.6667V2.79167C16.75 1.24987 17.9999 0 19.5417 0C21.0835 0 22.3333 1.24987 22.3333 2.79166V24.6667C22.3333 30.4135 18.7746 35.2423 13.9583 36.6114V74H8.375V36.6114C3.55874 35.2423 0 30.4135 0 24.6667V2.79167C0 1.24987 1.24987 0 2.79167 0ZM8.375 2.79167C8.375 1.24987 9.62487 0 11.1667 0C12.7085 0 13.9583 1.24987 13.9583 2.79167V21.5833H8.375V2.79167ZM41.875 21.5833C41.875 28.5735 38.4312 30.8333 36.2917 30.8333C34.1522 30.8333 30.7083 28.5735 30.7083 21.5833C30.7083 16.9378 31.363 12.5522 32.6249 9.57359C33.8111 6.77348 35.0083 6.16667 36.2917 6.16667C37.575 6.16667 38.7723 6.77348 39.9585 9.57359C41.2203 12.5522 41.875 16.9378 41.875 21.5833ZM39.0833 36.5598C43.8996 34.9969 47.4583 29.3875 47.4583 21.5833C47.4583 11.3661 44.6667 0 36.2917 0C27.9167 0 25.125 11.3661 25.125 21.5833C25.125 29.3875 28.6837 34.9969 33.5 36.5598V74H39.0833V36.5598ZM61.0396 1.78324L61 1.80237C54.5569 4.92557 50.25 11.5138 50.25 18.965V37.7804C50.25 40.1231 51.6135 42.2525 53.7417 43.2319L61 46.5721L61.4167 46.7639V74H67V49.3333V42.7285V6.16667V1.14547C67 0.549506 66.4596 0.0994811 65.8735 0.207373C64.7122 0.421137 63.5918 0.737288 62.5208 1.14547C62.0158 1.33795 61.5217 1.55091 61.0396 1.78324ZM61 39.9673V8.88383C58.0739 11.3014 56.25 14.9507 56.25 18.965V37.7804V37.7813L61 39.9673Z" fill="current"/>
</svg>
