<svg width="34" height="30" viewBox="0 0 34 30" fill="none" xmlns="http://www.w3.org/2000/svg">
<path d="M25.4463 23.5749H24.3719C23.2409 23.5749 22.1666 23.9624 21.3749 24.6624L18.9575 26.7749C17.8549 27.7374 16.0595 27.7374 14.9568 26.7749L12.5395 24.6624C11.7478 23.9624 10.6593 23.5749 9.54248 23.5749H8.48223C6.13553 23.5749 4.24121 21.9125 4.24121 19.8625V6.22491C4.24121 4.17491 6.13553 2.51245 8.48223 2.51245H25.4463C27.793 2.51245 29.6873 4.17491 29.6873 6.22491V19.8625C29.6873 21.9 27.793 23.5749 25.4463 23.5749Z" stroke="current" stroke-width="1.5" stroke-miterlimit="10" stroke-linecap="round" stroke-linejoin="round"/>
<path d="M17.3599 18.7C17.1478 18.7625 16.7944 18.7625 16.5682 18.7C14.7305 18.1375 10.6025 15.825 10.6025 11.8875C10.6025 10.15 12.1859 8.75 14.1367 8.75C15.2959 8.75 16.3138 9.2375 16.9641 10C17.6144 9.2375 18.6322 8.75 19.7914 8.75C21.7423 8.75 23.3256 10.15 23.3256 11.8875C23.3114 15.825 19.1977 18.1375 17.3599 18.7Z" stroke="current" stroke-width="1.5" stroke-linecap="round" stroke-linejoin="round"/>
</svg>
