<svg width="27" height="30" viewBox="0 0 21 21" fill="none" xmlns="http://www.w3.org/2000/svg">
<rect width="16" height="16" transform="translate(1)" fill="none"/>
<path fill-rule="evenodd" clip-rule="evenodd" d="M3 10V15C3 15.55 3.45 16 4 16H7V11H11V16H14C14.55 16 15 15.55 15 15V10L9 4L3 10ZM16.71 7.29L15 5.59V2C15 1.45 14.55 1 14 1C13.45 1 13 1.45 13 2V3.59L9.71 0.29C9.53 0.11 9.28 0 9 0C8.72 0 8.47 0.11 8.29 0.29L1.29 7.29C1.1017 7.4783 0.995911 7.7337 0.995911 8C0.995911 8.2663 1.1017 8.5217 1.29 8.71C1.47831 8.8983 1.7337 9.00409 2 9.00409C2.2663 9.00409 2.5217 8.8983 2.71 8.71L9 2.41L15.29 8.7C15.47 8.89 15.72 9 16 9C16.198 8.99971 16.3915 8.94084 16.556 8.8308C16.7206 8.72076 16.849 8.56446 16.9249 8.38162C17.0008 8.19877 17.0209 7.99754 16.9827 7.80328C16.9444 7.60903 16.8496 7.43043 16.71 7.29V7.29Z" fill="black"/>
</svg>
