<svg width="34" height="31" viewBox="0 0 34 31" fill="none" xmlns="http://www.w3.org/2000/svg">
<path d="M22.6186 2.58325H11.3092C5.65449 2.58325 2.82715 5.16659 2.82715 10.3333V27.1249C2.82715 27.8353 3.4633 28.4166 4.24082 28.4166H22.6186C28.2732 28.4166 31.1006 25.8333 31.1006 20.6666V10.3333C31.1006 5.16659 28.2732 2.58325 22.6186 2.58325Z" stroke="current" stroke-width="1.5" stroke-linecap="round" stroke-linejoin="round"/>
<path d="M18.2503 10.1266L10.9133 16.8304C10.6306 17.0887 10.362 17.5925 10.3054 17.9541L9.9096 20.5116C9.76823 21.4416 10.4751 22.0875 11.4929 21.9583L14.2919 21.5966C14.6878 21.545 15.2391 21.2995 15.5219 21.0412L22.8588 14.3375C24.117 13.1879 24.7249 11.8445 22.8588 10.1395C20.9928 8.42162 19.5226 8.96412 18.2503 10.1266Z" stroke="current" stroke-width="1.5" stroke-miterlimit="10" stroke-linecap="round" stroke-linejoin="round"/>
<path d="M17.2041 11.0825C17.8261 13.1104 19.5649 14.7121 21.7985 15.2804" stroke="current" stroke-width="1.5" stroke-miterlimit="10" stroke-linecap="round" stroke-linejoin="round"/>
</svg>
