<svg width="58" height="60" viewBox="0 0 58 60" fill="none" xmlns="http://www.w3.org/2000/svg">
<path fill-rule="evenodd" clip-rule="evenodd" d="M17.7023 33.5925C10.6369 23.9906 17.1105 10 28.6187 10C40.127 10 46.6006 23.9906 39.5352 33.5925L28.6187 48.4279L17.7023 33.5925ZM28.6187 5C13.1741 5 4.4863 23.776 13.9684 36.6622L28.6187 56.5721L43.2691 36.6622C52.7512 23.776 44.0634 5 28.6187 5ZM23.8884 25C23.8884 22.2386 26.0062 20 28.6187 20C31.2312 20 33.3491 22.2386 33.3491 25C33.3491 27.7614 31.2312 30 28.6187 30C26.0062 30 23.8884 27.7614 23.8884 25ZM28.6187 15C23.3937 15 19.158 19.4772 19.158 25C19.158 30.5228 23.3937 35 28.6187 35C33.8437 35 38.0794 30.5228 38.0794 25C38.0794 19.4772 33.8437 15 28.6187 15Z" fill="#ECE5D3"/>
</svg>
