<svg width="60" height="56" viewBox="0 0 60 56" fill="none" xmlns="http://www.w3.org/2000/svg">
<path d="M19.251 48.2341H18.5736C17.8606 48.2341 17.1833 48.4671 16.6842 48.8878L15.1602 50.1577C14.465 50.7363 13.3331 50.7363 12.6379 50.1577L11.1139 48.8878C10.6148 48.4671 9.92857 48.2341 9.22449 48.2341H8.55606C7.07659 48.2341 5.88232 47.2348 5.88232 46.0025V37.8048C5.88232 36.5726 7.07659 35.5732 8.55606 35.5732H19.251C20.7305 35.5732 21.9247 36.5726 21.9247 37.8048V46.0025C21.9247 47.2273 20.7305 48.2341 19.251 48.2341Z" stroke="#292D32" stroke-width="1.5" stroke-miterlimit="10" stroke-linecap="round" stroke-linejoin="round"/>
<path d="M14.1532 45.3038C14.0195 45.3414 13.7967 45.3414 13.6541 45.3038C12.4955 44.9657 9.89307 43.5756 9.89307 41.2087C9.89307 40.1643 10.8913 39.3228 12.1212 39.3228C12.852 39.3228 13.4937 39.6158 13.9037 40.0741C14.3136 39.6158 14.9553 39.3228 15.6862 39.3228C16.9161 39.3228 17.9143 40.1643 17.9143 41.2087C17.9054 43.5756 15.3118 44.9657 14.1532 45.3038Z" stroke="#292D32" stroke-width="1.5" stroke-linecap="round" stroke-linejoin="round"/>
<path d="M50.6225 2.92188H42.423C38.3233 2.92188 36.2734 4.84209 36.2734 8.68252V21.1639C36.2734 21.692 36.7347 22.124 37.2984 22.124H50.6225C54.7222 22.124 56.7721 20.2038 56.7721 16.3634V8.68252C56.7721 4.84209 54.7222 2.92188 50.6225 2.92188Z" stroke="#292D32" stroke-width="1.5" stroke-linecap="round" stroke-linejoin="round"/>
<path d="M47.4556 8.52888L42.1362 13.5118C41.9313 13.7039 41.7365 14.0783 41.6955 14.3471L41.4086 16.2482C41.3061 16.9394 41.8185 17.4195 42.5565 17.3235L44.5858 17.0546C44.8728 17.0162 45.2725 16.8338 45.4775 16.6418L50.7969 11.6588C51.7091 10.8043 52.1498 9.80582 50.7969 8.53848C49.444 7.26154 48.3781 7.66479 47.4556 8.52888Z" stroke="#292D32" stroke-width="1.5" stroke-miterlimit="10" stroke-linecap="round" stroke-linejoin="round"/>
<path d="M46.6973 9.23926C47.1482 10.7466 48.4089 11.9372 50.0283 12.3596" stroke="#292D32" stroke-width="1.5" stroke-miterlimit="10" stroke-linecap="round" stroke-linejoin="round"/>
<path d="M54.99 46.2688C54.99 46.9075 54.7783 47.5107 54.3973 48.0216C53.6945 49.008 52.4076 49.6751 50.9259 49.6751C49.4442 49.6751 48.1488 49.008 47.4545 48.0216C47.082 47.5107 46.8618 46.9075 46.8618 46.2688C46.8618 44.3883 48.6822 42.8625 50.9259 42.8625C53.1696 42.8625 54.99 44.3883 54.99 46.2688Z" stroke="#292D32" stroke-width="1.5" stroke-miterlimit="10" stroke-linecap="round" stroke-linejoin="round"/>
<path d="M49.3428 46.2688L50.3419 47.1061L52.5094 45.4314" stroke="#292D32" stroke-width="1.5" stroke-linecap="round" stroke-linejoin="round"/>
<path d="M54.9898 40.2299C54.9898 41.6279 54.558 42.8626 53.8806 43.9342C53.1356 43.2742 52.0857 42.8627 50.9257 42.8627C48.682 42.8627 46.8617 44.3884 46.8617 46.269C46.8617 47.1418 47.2596 47.9366 47.9031 48.5398C47.5898 48.6605 47.3019 48.7598 47.0479 48.8308C46.76 48.9159 46.2859 48.9159 45.998 48.8308C43.5427 48.1282 38.0562 45.1974 38.0562 40.2299C38.0562 38.0371 40.1644 36.2629 42.7637 36.2629C44.2962 36.2629 45.6678 36.8875 46.523 37.8455C47.3781 36.8875 48.7497 36.2629 50.2822 36.2629C52.8816 36.2629 54.9898 38.0371 54.9898 40.2299Z" stroke="#292D32" stroke-width="1.5" stroke-linecap="round" stroke-linejoin="round"/>
<path d="M29.4111 0L29.4111 55.1019" stroke="#292D32" stroke-width="1.5"/>
<path d="M0 28.5527H59.3569" stroke="#292D32" stroke-width="1.5"/>
<path d="M10.3721 15.5037L12.0432 16.8812L16.4994 13.2078" stroke="#292D32" stroke-width="1.5" stroke-linecap="round" stroke-linejoin="round"/>
<path d="M11.1407 7.51379H15.5969C17.825 7.51379 17.825 6.59542 17.825 5.67706C17.825 3.84033 16.711 3.84033 15.5969 3.84033H11.1407C10.0267 3.84033 8.9126 3.84033 8.9126 5.67706C8.9126 7.51379 10.0267 7.51379 11.1407 7.51379Z" stroke="#292D32" stroke-width="1.5" stroke-miterlimit="10" stroke-linecap="round" stroke-linejoin="round"/>
<path d="M17.825 5.69556C21.5348 5.86086 23.3953 6.99045 23.3953 11.1874V16.6976C23.3953 20.371 22.2812 22.2077 16.711 22.2077H10.0266C4.45634 22.2077 3.34229 20.371 3.34229 16.6976V11.1874C3.34229 6.99963 5.20276 5.86086 8.91256 5.69556" stroke="#292D32" stroke-width="1.5" stroke-miterlimit="10" stroke-linecap="round" stroke-linejoin="round"/>
</svg>
