<svg width="145" height="132" viewBox="0 0 145 132" fill="none" xmlns="http://www.w3.org/2000/svg">
<path d="M74.5001 92.4V105.6M53.3501 112.2H95.6501M1.99998 27.0001C-3.5 13.8 26.6 -0.290141 26.6 7.00002M26.5999 13.8001C18.8127 13.8001 12.4999 19.7099 12.4999 27M32.2001 92.4H116.8C124.587 92.4 130.9 86.4901 130.9 79.2V33C130.9 25.7099 124.587 19.8 116.8 19.8H32.2001C24.4129 19.8 18.1001 25.7099 18.1001 33V79.2C18.1001 86.4901 24.4129 92.4 32.2001 92.4Z" stroke="black" stroke-width="2" stroke-linecap="round" stroke-linejoin="round"/>
<path d="M74 56.5631V46.2816M74 64.1838V64.2742M89.1198 72.8371H58.8802C54.7496 72.8371 51.2638 70.4906 50.1671 67.2803C49.6989 65.9099 50.2742 64.4826 51.154 63.2672L66.2738 39.8328C69.8163 34.9398 78.1837 34.9398 81.7262 39.8328L96.846 63.2672C97.7258 64.4826 98.3011 65.9099 97.8329 67.2803C96.7362 70.4906 93.2504 72.8371 89.1198 72.8371Z" stroke="black" stroke-width="2" stroke-linecap="round" stroke-linejoin="round"/>
</svg>
