<svg width="current" height="current" viewBox="0 0 21 20" fill="none" xmlns="http://www.w3.org/2000/svg">
<path fill-rule="evenodd" clip-rule="evenodd" d="M5.86766 0.564073C6.62831 -0.188024 7.86155 -0.188024 8.62219 0.564073L9.99946 1.92586C10.7505 2.66851 10.76 3.86677 10.0278 4.62087L13.2771 6.85584L14.2372 5.90649C14.9978 5.15439 16.2311 5.15439 16.9917 5.90649L19.7463 8.63007L14.9258 13.3964L20.2273 18.6383L18.85 20.0001L13.5485 14.7582L8.72814 19.5244L5.97361 16.8008C5.21296 16.0487 5.21296 14.8293 5.97361 14.0772L6.93375 13.1279L4.67338 9.91511C3.91072 10.6391 2.69883 10.6298 1.94775 9.88711L0.570483 8.52532C-0.190159 7.77322 -0.190163 6.55383 0.570482 5.80173L5.86766 0.564073ZM7.24493 1.92586L1.94775 7.16353L3.32502 8.52532L4.94283 6.92568L8.53267 12.0281C9.07117 12.7935 8.9778 13.8304 8.31102 14.4897L7.35087 15.439L8.72814 16.8008L16.9917 8.63007L15.6145 7.26828L14.6543 8.21763C13.9875 8.87693 12.9389 8.96925 12.1648 8.4368L7.00438 4.88729L8.6222 3.28766L7.24493 1.92586Z" fill="#262626"/>
</svg>
