<svg width="current" height="current" viewBox="0 0 42 36" fill="none" xmlns="http://www.w3.org/2000/svg">
<path d="M14.8354 33.644H3.42225C2.72069 33.644 2.13892 33.1412 2.13892 32.5349V23.6617C2.13892 21.4138 4.24358 19.5948 6.84447 19.5948H14.8354C15.5369 19.5948 16.1187 20.0977 16.1187 20.704V32.5349C16.1187 33.1412 15.5369 33.644 14.8354 33.644ZM4.70558 31.4257H13.552V21.8131H6.84447C5.6638 21.8131 4.70558 22.6413 4.70558 23.6617V31.4257Z" fill="#292D32"/>
<path d="M26.2316 33.644H14.8185C14.1169 33.644 13.5352 33.1412 13.5352 32.5349V17.7463C13.5352 15.4984 15.6398 13.6794 18.2407 13.6794H22.8094C25.4103 13.6794 27.5149 15.4984 27.5149 17.7463V32.5349C27.5149 33.1412 26.9503 33.644 26.2316 33.644ZM16.1189 31.4257H24.9654V17.7463C24.9654 16.7259 24.0072 15.8977 22.8265 15.8977H18.2578C17.0772 15.8977 16.1189 16.7259 16.1189 17.7463V31.4257Z" fill="#292D32"/>
<path d="M37.6447 33.644H26.2316C25.53 33.644 24.9482 33.1412 24.9482 32.5349V25.1406C24.9482 24.5342 25.53 24.0314 26.2316 24.0314H34.2225C36.8233 24.0314 38.928 25.8504 38.928 28.0983V32.5349C38.928 33.1412 38.3462 33.644 37.6447 33.644ZM27.5149 31.4257H36.3613V28.0983C36.3613 27.0779 35.4031 26.2497 34.2225 26.2497H27.5149V31.4257Z" fill="#292D32"/>
<path d="M23.4421 12.3485C23.0314 12.3485 22.518 12.2449 21.9363 11.9491L20.5332 11.2245L19.1472 11.9344C17.744 12.659 16.8201 12.2301 16.4778 12.0231C16.1356 11.8161 15.3998 11.1654 15.7592 9.80482L16.0843 8.57734L14.9207 7.57173C14.2021 6.95061 13.9454 6.21118 14.202 5.5309C14.4587 4.85063 15.1603 4.37738 16.1527 4.2295L17.6414 4.00768L18.4798 2.55843C19.4038 0.976048 21.6454 0.976048 22.5523 2.55843L23.3907 4.00768L24.8794 4.2295C25.8718 4.37738 26.5905 4.85063 26.83 5.5309C27.0867 6.21118 26.8129 6.95061 26.1114 7.57173L24.9478 8.57734L25.2729 9.80482C25.6323 11.1802 24.8965 11.8161 24.5543 12.0379C24.4003 12.1562 24.0067 12.3485 23.4421 12.3485ZM20.5332 8.99142C20.9438 8.99142 21.3545 9.08019 21.6967 9.25765L22.6549 9.74566L22.4496 8.94706C22.2785 8.32594 22.5352 7.57174 23.0656 7.11329L23.9383 6.35906L22.8603 6.1964C22.1758 6.09288 21.5085 5.66401 21.2005 5.13163L20.5332 4.02248L19.8829 5.13163C19.5749 5.66401 18.9076 6.09288 18.2232 6.1964L17.1452 6.3443L18.0178 7.09849C18.5483 7.55693 18.7878 8.31118 18.6338 8.9323L18.4285 9.73085L19.3867 9.24285C19.7118 9.06539 20.1225 8.99142 20.5332 8.99142Z" fill="#292D32"/>
</svg>
