<svg width="31" height="30" viewBox="0 0 31 30" fill="none" xmlns="http://www.w3.org/2000/svg">
<path d="M28.3297 21.5C28.3297 22.625 28.0084 23.6874 27.4301 24.5874C26.3634 26.3249 24.41 27.5 22.1609 27.5C19.9119 27.5 17.9456 26.3249 16.8918 24.5874C16.3263 23.6874 15.9922 22.625 15.9922 21.5C15.9922 18.1875 18.7553 15.5 22.1609 15.5C25.5666 15.5 28.3297 18.1875 28.3297 21.5Z" stroke="current" stroke-width="1.5" stroke-miterlimit="10" stroke-linecap="round" stroke-linejoin="round"/>
<path d="M19.7578 21.4999L21.2743 22.9749L24.5643 20.0249" stroke="current" stroke-width="1.5" stroke-linecap="round" stroke-linejoin="round"/>
<path d="M28.3301 10.8625C28.3301 13.325 27.6747 15.5 26.6465 17.3875C25.5156 16.225 23.922 15.5001 22.1613 15.5001C18.7557 15.5001 15.9926 18.1875 15.9926 21.5C15.9926 23.0375 16.5966 24.4376 17.5733 25.5001C17.0978 25.7126 16.6609 25.8875 16.2753 26.0125C15.8384 26.1625 15.1187 26.1625 14.6817 26.0125C10.9548 24.775 2.62695 19.6125 2.62695 10.8625C2.62695 7.00003 5.82699 3.875 9.77242 3.875C12.0986 3.875 14.1805 4.97505 15.4785 6.66255C16.7765 4.97505 18.8585 3.875 21.1846 3.875C25.13 3.875 28.3301 7.00003 28.3301 10.8625Z" stroke="current" stroke-width="1.5" stroke-linecap="round" stroke-linejoin="round"/>
</svg>
