<svg width="current" height="current" viewBox="0 0 45 35" fill="none" xmlns="http://www.w3.org/2000/svg">
<path d="M21.0323 32.9093C11.3189 32.9093 3.42212 26.7796 3.42212 19.2398C3.42212 11.7 11.3189 5.57037 21.0323 5.57037C30.7457 5.57037 38.6425 11.7 38.6425 19.2398C38.6425 26.7796 30.7457 32.9093 21.0323 32.9093ZM21.0323 7.72871C12.8575 7.72871 6.20267 12.8943 6.20267 19.2398C6.20267 25.5853 12.8575 30.7509 21.0323 30.7509C29.2071 30.7509 35.8619 25.5853 35.8619 19.2398C35.8619 12.8943 29.2071 7.72871 21.0323 7.72871Z" fill="#292D32"/>
<path d="M21.3903 21.3528C20.6303 21.3528 20 20.8636 20 20.2736V13.0792C20 12.4892 20.6303 12 21.3903 12C22.1503 12 22.7806 12.4892 22.7806 13.0792V20.2736C22.7806 20.8636 22.1503 21.3528 21.3903 21.3528Z" fill="#292D32"/>
<path d="M26.4152 2.87775H15.293C14.533 2.87775 13.9027 2.38853 13.9027 1.79858C13.9027 1.20864 14.533 0.719417 15.293 0.719417H26.4152C27.1752 0.719417 27.8055 1.20864 27.8055 1.79858C27.8055 2.38853 27.1752 2.87775 26.4152 2.87775Z" fill="#292D32"/>
</svg>
