<svg width="current" height="118" viewBox="0 0 current 118" fill="none" xmlns="http://www.w3.org/2000/svg">
<rect width="197" height="118" rx="15" fill="#FAF3E7"/>
<path fill-rule="evenodd" clip-rule="evenodd" d="M99 40C99.3788 40 99.725 40.214 99.8944 40.5528L110.894 62.5528C111.049 62.8628 111.033 63.2309 110.851 63.5257C110.668 63.8205 110.347 64 110 64H88C87.6534 64 87.3316 63.8205 87.1494 63.5257C86.9671 63.2309 86.9506 62.8628 87.1056 62.5528L98.1056 40.5528C98.275 40.214 98.6212 40 99 40ZM98 55V48H100V55H98ZM100.5 58.5C100.5 59.3284 99.8284 60 99 60C98.1716 60 97.5 59.3284 97.5 58.5C97.5 57.6716 98.1716 57 99 57C99.8284 57 100.5 57.6716 100.5 58.5Z" fill="#262626"/>
</svg>
